<?xml version="1.0" encoding="UTF-8" standalone="no"?>
<!DOCTYPE svg PUBLIC "-//W3C//DTD SVG 1.1//EN"
 "http://www.w3.org/Graphics/SVG/1.1/DTD/svg11.dtd">
<!-- Generated by graphviz version 2.43.0 (0)
 -->
<!-- Title: Ogre::Codec Pages: 1 -->
<svg width="396pt" height="196pt"
 viewBox="0.00 0.00 395.50 196.00" xmlns="http://www.w3.org/2000/svg" xmlns:xlink="http://www.w3.org/1999/xlink">
<g id="graph0" class="graph" transform="scale(1 1) rotate(0) translate(4 192)">
<title>Ogre::Codec</title>
<!-- Node1 -->
<g id="node1" class="node">
<title>Node1</title>
<g id="a_node1"><a xlink:title="Abstract class that defines a &#39;codec&#39;.">
<polygon fill="#bfbfbf" stroke="black" points="139.5,-112.5 139.5,-131.5 215.5,-131.5 215.5,-112.5 139.5,-112.5"/>
<text text-anchor="middle" x="177.5" y="-119.5" font-family="Helvetica,sans-Serif" font-size="10.00">Ogre::Codec</text>
</a>
</g>
</g>
<!-- Node3 -->
<g id="node3" class="node">
<title>Node3</title>
<g id="a_node3"><a xlink:href="class_ogre_1_1_image_codec.html" target="_top" xlink:title="Codec specialized in images.">
<polygon fill="none" stroke="black" points="124,-56.5 124,-75.5 231,-75.5 231,-56.5 124,-56.5"/>
<text text-anchor="middle" x="177.5" y="-63.5" font-family="Helvetica,sans-Serif" font-size="10.00">Ogre::ImageCodec</text>
</a>
</g>
</g>
<!-- Node1&#45;&gt;Node3 -->
<g id="edge2" class="edge">
<title>Node1&#45;&gt;Node3</title>
<path fill="none" stroke="midnightblue" d="M177.5,-101.8C177.5,-92.91 177.5,-82.78 177.5,-75.75"/>
<polygon fill="midnightblue" stroke="midnightblue" points="174,-102.08 177.5,-112.08 181,-102.08 174,-102.08"/>
</g>
<!-- Node2 -->
<g id="node2" class="node">
<title>Node2</title>
<g id="a_node2"><a xlink:title=" ">
<polygon fill="none" stroke="#bfbfbf" points="142,-168.5 142,-187.5 213,-187.5 213,-168.5 142,-168.5"/>
<text text-anchor="middle" x="177.5" y="-175.5" font-family="Helvetica,sans-Serif" font-size="10.00">CodecAlloc</text>
</a>
</g>
</g>
<!-- Node2&#45;&gt;Node1 -->
<g id="edge1" class="edge">
<title>Node2&#45;&gt;Node1</title>
<path fill="none" stroke="midnightblue" d="M177.5,-157.8C177.5,-148.91 177.5,-138.78 177.5,-131.75"/>
<polygon fill="midnightblue" stroke="midnightblue" points="174,-158.08 177.5,-168.08 181,-158.08 174,-158.08"/>
</g>
<!-- Node4 -->
<g id="node4" class="node">
<title>Node4</title>
<g id="a_node4"><a xlink:href="class_ogre_1_1_e_x_r_codec.html" target="_top" xlink:title=" ">
<polygon fill="none" stroke="black" points="0,-0.5 0,-19.5 95,-19.5 95,-0.5 0,-0.5"/>
<text text-anchor="middle" x="47.5" y="-7.5" font-family="Helvetica,sans-Serif" font-size="10.00">Ogre::EXRCodec</text>
</a>
</g>
</g>
<!-- Node3&#45;&gt;Node4 -->
<g id="edge3" class="edge">
<title>Node3&#45;&gt;Node4</title>
<path fill="none" stroke="midnightblue" d="M147.41,-52.5C123.04,-42.38 89.36,-28.39 68,-19.52"/>
<polygon fill="midnightblue" stroke="midnightblue" points="146.32,-55.84 156.9,-56.44 149.01,-49.38 146.32,-55.84"/>
</g>
<!-- Node5 -->
<g id="node5" class="node">
<title>Node5</title>
<g id="a_node5"><a xlink:href="class_ogre_1_1_free_image_codec.html" target="_top" xlink:title=" ">
<polygon fill="none" stroke="black" points="113.5,-0.5 113.5,-19.5 241.5,-19.5 241.5,-0.5 113.5,-0.5"/>
<text text-anchor="middle" x="177.5" y="-7.5" font-family="Helvetica,sans-Serif" font-size="10.00">Ogre::FreeImageCodec</text>
</a>
</g>
</g>
<!-- Node3&#45;&gt;Node5 -->
<g id="edge4" class="edge">
<title>Node3&#45;&gt;Node5</title>
<path fill="none" stroke="midnightblue" d="M177.5,-45.8C177.5,-36.91 177.5,-26.78 177.5,-19.75"/>
<polygon fill="midnightblue" stroke="midnightblue" points="174,-46.08 177.5,-56.08 181,-46.08 174,-46.08"/>
</g>
<!-- Node6 -->
<g id="node6" class="node">
<title>Node6</title>
<g id="a_node6"><a xlink:href="class_ogre_1_1_s_t_b_i_image_codec.html" target="_top" xlink:title=" ">
<polygon fill="none" stroke="black" points="259.5,-0.5 259.5,-19.5 387.5,-19.5 387.5,-0.5 259.5,-0.5"/>
<text text-anchor="middle" x="323.5" y="-7.5" font-family="Helvetica,sans-Serif" font-size="10.00">Ogre::STBIImageCodec</text>
</a>
</g>
</g>
<!-- Node3&#45;&gt;Node6 -->
<g id="edge5" class="edge">
<title>Node3&#45;&gt;Node6</title>
<path fill="none" stroke="midnightblue" d="M210.2,-52.91C237.65,-42.75 276.17,-28.51 300.47,-19.52"/>
<polygon fill="midnightblue" stroke="midnightblue" points="208.8,-49.69 200.63,-56.44 211.23,-56.26 208.8,-49.69"/>
</g>
</g>
</svg>
