<?xml version="1.0" encoding="UTF-8" standalone="no"?>
<!DOCTYPE svg PUBLIC "-//W3C//DTD SVG 1.1//EN"
 "http://www.w3.org/Graphics/SVG/1.1/DTD/svg11.dtd">
<!-- Generated by graphviz version 2.43.0 (0)
 -->
<!-- Title: Ogre::RTShader::SubRenderStateFactory Pages: 1 -->
<svg width="535pt" height="684pt"
 viewBox="0.00 0.00 535.00 683.50" xmlns="http://www.w3.org/2000/svg" xmlns:xlink="http://www.w3.org/1999/xlink">
<g id="graph0" class="graph" transform="scale(1 1) rotate(0) translate(4 679.5)">
<title>Ogre::RTShader::SubRenderStateFactory</title>
<!-- Node1 -->
<g id="node1" class="node">
<title>Node1</title>
<g id="a_node1"><a xlink:title="Abstract factory interface for creating SubRenderState implementation instances.">
<polygon fill="#bfbfbf" stroke="black" points="160,-322 160,-352 311,-352 311,-322 160,-322"/>
<text text-anchor="start" x="168" y="-340" font-family="Helvetica,sans-Serif" font-size="10.00">Ogre::RTShader::SubRender</text>
<text text-anchor="middle" x="235.5" y="-329" font-family="Helvetica,sans-Serif" font-size="10.00">StateFactory</text>
</a>
</g>
</g>
<!-- Node3 -->
<g id="node3" class="node">
<title>Node3</title>
<g id="a_node3"><a xlink:href="class_ogre_1_1_r_t_shader_1_1_f_f_p_alpha_test_factory.html" target="_top" xlink:title=" ">
<polygon fill="none" stroke="black" points="365,-645 365,-675 509,-675 509,-645 365,-645"/>
<text text-anchor="start" x="373" y="-663" font-family="Helvetica,sans-Serif" font-size="10.00">Ogre::RTShader::FFPAlpha</text>
<text text-anchor="middle" x="437" y="-652" font-family="Helvetica,sans-Serif" font-size="10.00">TestFactory</text>
</a>
</g>
</g>
<!-- Node1&#45;&gt;Node3 -->
<g id="edge2" class="edge">
<title>Node1&#45;&gt;Node3</title>
<path fill="none" stroke="midnightblue" d="M238.23,-362.05C243.58,-419.38 264.85,-560.97 347,-636 352.2,-640.75 358.24,-644.57 364.68,-647.65"/>
<polygon fill="midnightblue" stroke="midnightblue" points="241.72,-361.72 237.39,-352.05 234.74,-362.31 241.72,-361.72"/>
</g>
<!-- Node4 -->
<g id="node4" class="node">
<title>Node4</title>
<g id="a_node4"><a xlink:href="class_ogre_1_1_r_t_shader_1_1_f_f_p_colour_factory.html" target="_top" xlink:title="A factory that enables creation of FFPColour instances.">
<polygon fill="none" stroke="black" points="363,-596 363,-626 511,-626 511,-596 363,-596"/>
<text text-anchor="start" x="371" y="-614" font-family="Helvetica,sans-Serif" font-size="10.00">Ogre::RTShader::FFPColour</text>
<text text-anchor="middle" x="437" y="-603" font-family="Helvetica,sans-Serif" font-size="10.00">Factory</text>
</a>
</g>
</g>
<!-- Node1&#45;&gt;Node4 -->
<g id="edge3" class="edge">
<title>Node1&#45;&gt;Node4</title>
<path fill="none" stroke="midnightblue" d="M240.43,-362.26C249.61,-412.55 277.21,-525.59 347,-586 351.73,-590.1 357.09,-593.53 362.77,-596.39"/>
<polygon fill="midnightblue" stroke="midnightblue" points="243.85,-361.5 238.7,-352.24 236.95,-362.69 243.85,-361.5"/>
</g>
<!-- Node5 -->
<g id="node5" class="node">
<title>Node5</title>
<g id="a_node5"><a xlink:href="class_ogre_1_1_r_t_shader_1_1_f_f_p_fog_factory.html" target="_top" xlink:title="A factory that enables creation of FFPFog instances.">
<polygon fill="none" stroke="black" points="352,-557.5 352,-576.5 522,-576.5 522,-557.5 352,-557.5"/>
<text text-anchor="middle" x="437" y="-564.5" font-family="Helvetica,sans-Serif" font-size="10.00">Ogre::RTShader::FFPFogFactory</text>
</a>
</g>
</g>
<!-- Node1&#45;&gt;Node5 -->
<g id="edge4" class="edge">
<title>Node1&#45;&gt;Node5</title>
<path fill="none" stroke="midnightblue" d="M242.14,-361.87C253.64,-406.58 284.19,-500.32 347,-548 352.03,-551.82 357.67,-554.91 363.59,-557.41"/>
<polygon fill="midnightblue" stroke="midnightblue" points="245.53,-360.98 239.73,-352.11 238.73,-362.66 245.53,-360.98"/>
</g>
<!-- Node6 -->
<g id="node6" class="node">
<title>Node6</title>
<g id="a_node6"><a xlink:href="class_ogre_1_1_r_t_shader_1_1_f_f_p_lighting_factory.html" target="_top" xlink:title="A factory that enables creation of FFPLighting instances.">
<polygon fill="none" stroke="black" points="359.5,-508 359.5,-538 514.5,-538 514.5,-508 359.5,-508"/>
<text text-anchor="start" x="367.5" y="-526" font-family="Helvetica,sans-Serif" font-size="10.00">Ogre::RTShader::FFPLighting</text>
<text text-anchor="middle" x="437" y="-515" font-family="Helvetica,sans-Serif" font-size="10.00">Factory</text>
</a>
</g>
</g>
<!-- Node1&#45;&gt;Node6 -->
<g id="edge5" class="edge">
<title>Node1&#45;&gt;Node6</title>
<path fill="none" stroke="midnightblue" d="M246.47,-361.39C262.34,-397.11 296.77,-463.31 347,-499 351.83,-502.43 357.12,-505.37 362.64,-507.89"/>
<polygon fill="midnightblue" stroke="midnightblue" points="249.66,-359.96 242.48,-352.17 243.24,-362.73 249.66,-359.96"/>
</g>
<!-- Node7 -->
<g id="node7" class="node">
<title>Node7</title>
<g id="a_node7"><a xlink:href="class_ogre_1_1_r_t_shader_1_1_f_f_p_texturing_factory.html" target="_top" xlink:title="A factory that enables creation of FFPTexturing instances.">
<polygon fill="none" stroke="black" points="356.5,-459 356.5,-489 517.5,-489 517.5,-459 356.5,-459"/>
<text text-anchor="start" x="364.5" y="-477" font-family="Helvetica,sans-Serif" font-size="10.00">Ogre::RTShader::FFPTexturing</text>
<text text-anchor="middle" x="437" y="-466" font-family="Helvetica,sans-Serif" font-size="10.00">Factory</text>
</a>
</g>
</g>
<!-- Node1&#45;&gt;Node7 -->
<g id="edge6" class="edge">
<title>Node1&#45;&gt;Node7</title>
<path fill="none" stroke="midnightblue" d="M253.22,-360.44C272.82,-386.19 307.65,-426.94 347,-450 352.8,-453.4 359.09,-456.33 365.56,-458.85"/>
<polygon fill="midnightblue" stroke="midnightblue" points="255.96,-358.26 247.18,-352.33 250.35,-362.44 255.96,-358.26"/>
</g>
<!-- Node8 -->
<g id="node8" class="node">
<title>Node8</title>
<g id="a_node8"><a xlink:href="class_ogre_1_1_r_t_shader_1_1_f_f_p_transform_factory.html" target="_top" xlink:title="A factory that enables creation of FFPTransform instances.">
<polygon fill="none" stroke="black" points="354,-410 354,-440 520,-440 520,-410 354,-410"/>
<text text-anchor="start" x="362" y="-428" font-family="Helvetica,sans-Serif" font-size="10.00">Ogre::RTShader::FFPTransform</text>
<text text-anchor="middle" x="437" y="-417" font-family="Helvetica,sans-Serif" font-size="10.00">Factory</text>
</a>
</g>
</g>
<!-- Node1&#45;&gt;Node8 -->
<g id="edge7" class="edge">
<title>Node1&#45;&gt;Node8</title>
<path fill="none" stroke="midnightblue" d="M268.08,-357.77C289.62,-371.23 319.19,-388.37 347,-400 355.74,-403.65 365.17,-406.95 374.52,-409.86"/>
<polygon fill="midnightblue" stroke="midnightblue" points="269.68,-354.64 259.36,-352.25 265.94,-360.55 269.68,-354.64"/>
</g>
<!-- Node9 -->
<g id="node9" class="node">
<title>Node9</title>
<g id="a_node9"><a xlink:href="class_ogre_1_1_r_t_shader_1_1_g_buffer_factory.html" target="_top" xlink:title="A factory that enables creation of GBuffer instances.">
<polygon fill="none" stroke="black" points="351,-371.5 351,-390.5 523,-390.5 523,-371.5 351,-371.5"/>
<text text-anchor="middle" x="437" y="-378.5" font-family="Helvetica,sans-Serif" font-size="10.00">Ogre::RTShader::GBufferFactory</text>
</a>
</g>
</g>
<!-- Node1&#45;&gt;Node9 -->
<g id="edge8" class="edge">
<title>Node1&#45;&gt;Node9</title>
<path fill="none" stroke="midnightblue" d="M311.97,-354.2C323.69,-356.84 335.67,-359.51 347,-362 361.2,-365.12 376.68,-368.45 390.7,-371.44"/>
<polygon fill="midnightblue" stroke="midnightblue" points="312.73,-350.79 302.2,-352 311.19,-357.62 312.73,-350.79"/>
</g>
<!-- Node10 -->
<g id="node10" class="node">
<title>Node10</title>
<g id="a_node10"><a xlink:href="class_ogre_1_1_r_t_shader_1_1_hardware_skinning_factory.html" target="_top" xlink:title="A factory that enables creation of HardwareSkinning instances.">
<polygon fill="none" stroke="black" points="364,-322 364,-352 510,-352 510,-322 364,-322"/>
<text text-anchor="start" x="372" y="-340" font-family="Helvetica,sans-Serif" font-size="10.00">Ogre::RTShader::Hardware</text>
<text text-anchor="middle" x="437" y="-329" font-family="Helvetica,sans-Serif" font-size="10.00">SkinningFactory</text>
</a>
</g>
</g>
<!-- Node1&#45;&gt;Node10 -->
<g id="edge9" class="edge">
<title>Node1&#45;&gt;Node10</title>
<path fill="none" stroke="midnightblue" d="M321.29,-337C335.46,-337 350.03,-337 363.84,-337"/>
<polygon fill="midnightblue" stroke="midnightblue" points="321.07,-333.5 311.07,-337 321.07,-340.5 321.07,-333.5"/>
</g>
<!-- Node11 -->
<g id="node11" class="node">
<title>Node11</title>
<g id="a_node11"><a xlink:href="class_ogre_1_1_r_t_shader_1_1_integrated_p_s_s_m3_factory.html" target="_top" xlink:title="A factory that enables creation of IntegratedPSSM3 instances.">
<polygon fill="none" stroke="black" points="362.5,-273 362.5,-303 511.5,-303 511.5,-273 362.5,-273"/>
<text text-anchor="start" x="370.5" y="-291" font-family="Helvetica,sans-Serif" font-size="10.00">Ogre::RTShader::Integrated</text>
<text text-anchor="middle" x="437" y="-280" font-family="Helvetica,sans-Serif" font-size="10.00">PSSM3Factory</text>
</a>
</g>
</g>
<!-- Node1&#45;&gt;Node11 -->
<g id="edge10" class="edge">
<title>Node1&#45;&gt;Node11</title>
<path fill="none" stroke="midnightblue" d="M307.66,-319.52C329.64,-314.12 353.66,-308.22 374.9,-303.01"/>
<polygon fill="midnightblue" stroke="midnightblue" points="306.59,-316.18 297.71,-321.97 308.26,-322.98 306.59,-316.18"/>
</g>
<!-- Node12 -->
<g id="node12" class="node">
<title>Node12</title>
<g id="a_node12"><a xlink:href="class_ogre_1_1_r_t_shader_1_1_layered_blending_factory.html" target="_top" xlink:title="A factory that enables creation of LayeredBlending instances.">
<polygon fill="none" stroke="black" points="347,-224 347,-254 527,-254 527,-224 347,-224"/>
<text text-anchor="start" x="355" y="-242" font-family="Helvetica,sans-Serif" font-size="10.00">Ogre::RTShader::LayeredBlending</text>
<text text-anchor="middle" x="437" y="-231" font-family="Helvetica,sans-Serif" font-size="10.00">Factory</text>
</a>
</g>
</g>
<!-- Node1&#45;&gt;Node12 -->
<g id="edge11" class="edge">
<title>Node1&#45;&gt;Node12</title>
<path fill="none" stroke="midnightblue" d="M262.93,-315.67C284.45,-299.23 316.2,-277 347,-263 354.43,-259.62 362.43,-256.64 370.48,-254.02"/>
<polygon fill="midnightblue" stroke="midnightblue" points="260.69,-312.98 254.93,-321.87 264.98,-318.51 260.69,-312.98"/>
</g>
<!-- Node13 -->
<g id="node13" class="node">
<title>Node13</title>
<g id="a_node13"><a xlink:href="class_ogre_1_1_r_t_shader_1_1_normal_map_lighting_factory.html" target="_top" xlink:title="A factory that enables creation of NormalMapLighting instances.">
<polygon fill="none" stroke="black" points="359.5,-175 359.5,-205 514.5,-205 514.5,-175 359.5,-175"/>
<text text-anchor="start" x="367.5" y="-193" font-family="Helvetica,sans-Serif" font-size="10.00">Ogre::RTShader::NormalMap</text>
<text text-anchor="middle" x="437" y="-182" font-family="Helvetica,sans-Serif" font-size="10.00">LightingFactory</text>
</a>
</g>
</g>
<!-- Node1&#45;&gt;Node13 -->
<g id="edge12" class="edge">
<title>Node1&#45;&gt;Node13</title>
<path fill="none" stroke="midnightblue" d="M251.28,-313.6C270.12,-285.7 305.29,-239.64 347,-214 352.59,-210.56 358.67,-207.61 364.95,-205.08"/>
<polygon fill="midnightblue" stroke="midnightblue" points="248.34,-311.7 245.75,-321.97 254.18,-315.56 248.34,-311.7"/>
</g>
<!-- Node14 -->
<g id="node14" class="node">
<title>Node14</title>
<g id="a_node14"><a xlink:href="class_ogre_1_1_r_t_shader_1_1_per_pixel_lighting_factory.html" target="_top" xlink:title="A factory that enables creation of PerPixelLighting instances.">
<polygon fill="none" stroke="black" points="368,-126 368,-156 506,-156 506,-126 368,-126"/>
<text text-anchor="start" x="376" y="-144" font-family="Helvetica,sans-Serif" font-size="10.00">Ogre::RTShader::PerPixel</text>
<text text-anchor="middle" x="437" y="-133" font-family="Helvetica,sans-Serif" font-size="10.00">LightingFactory</text>
</a>
</g>
</g>
<!-- Node1&#45;&gt;Node14 -->
<g id="edge13" class="edge">
<title>Node1&#45;&gt;Node14</title>
<path fill="none" stroke="midnightblue" d="M245.59,-312.26C260.71,-274.62 294.63,-203.31 347,-165 353.33,-160.37 360.5,-156.63 367.95,-153.62"/>
<polygon fill="midnightblue" stroke="midnightblue" points="242.19,-311.34 241.82,-321.93 248.71,-313.88 242.19,-311.34"/>
</g>
<!-- Node15 -->
<g id="node15" class="node">
<title>Node15</title>
<g id="a_node15"><a xlink:href="class_ogre_1_1_r_t_shader_1_1_triplanar_texturing_factory.html" target="_top" xlink:title="A factory that enables creation of TriplanarMapping instances.">
<polygon fill="none" stroke="black" points="366.5,-77 366.5,-107 507.5,-107 507.5,-77 366.5,-77"/>
<text text-anchor="start" x="374.5" y="-95" font-family="Helvetica,sans-Serif" font-size="10.00">Ogre::RTShader::Triplanar</text>
<text text-anchor="middle" x="437" y="-84" font-family="Helvetica,sans-Serif" font-size="10.00">TexturingFactory</text>
</a>
</g>
</g>
<!-- Node1&#45;&gt;Node15 -->
<g id="edge14" class="edge">
<title>Node1&#45;&gt;Node15</title>
<path fill="none" stroke="midnightblue" d="M241.87,-311.98C253.07,-266 283.35,-168.03 347,-116 352.7,-111.34 359.22,-107.58 366.09,-104.55"/>
<polygon fill="midnightblue" stroke="midnightblue" points="238.4,-311.45 239.54,-321.99 245.22,-313.04 238.4,-311.45"/>
</g>
<!-- Node16 -->
<g id="node16" class="node">
<title>Node16</title>
<g id="a_node16"><a xlink:href="class_ogre_1_1_r_t_shader_1_1_w_b_o_i_t_factory.html" target="_top" xlink:title="A factory that enables creation of GBuffer instances.">
<polygon fill="none" stroke="black" points="353.5,-38.5 353.5,-57.5 520.5,-57.5 520.5,-38.5 353.5,-38.5"/>
<text text-anchor="middle" x="437" y="-45.5" font-family="Helvetica,sans-Serif" font-size="10.00">Ogre::RTShader::WBOITFactory</text>
</a>
</g>
</g>
<!-- Node1&#45;&gt;Node16 -->
<g id="edge15" class="edge">
<title>Node1&#45;&gt;Node16</title>
<path fill="none" stroke="midnightblue" d="M239.06,-311.88C245.95,-258.09 269.93,-131.43 347,-67 351.48,-63.25 356.53,-60.19 361.89,-57.69"/>
<polygon fill="midnightblue" stroke="midnightblue" points="235.57,-311.57 237.87,-321.92 242.53,-312.4 235.57,-311.57"/>
</g>
<!-- Node17 -->
<g id="node17" class="node">
<title>Node17</title>
<g id="a_node17"><a xlink:href="class_ogre_1_1_terrain_transform_factory.html" target="_top" xlink:title=" ">
<polygon fill="none" stroke="black" points="355,-0.5 355,-19.5 519,-19.5 519,-0.5 355,-0.5"/>
<text text-anchor="middle" x="437" y="-7.5" font-family="Helvetica,sans-Serif" font-size="10.00">Ogre::TerrainTransformFactory</text>
</a>
</g>
</g>
<!-- Node1&#45;&gt;Node17 -->
<g id="edge16" class="edge">
<title>Node1&#45;&gt;Node17</title>
<path fill="none" stroke="midnightblue" d="M237.67,-311.32C241.84,-251.91 260.81,-104.34 347,-29 351.28,-25.26 356.12,-22.19 361.27,-19.68"/>
<polygon fill="midnightblue" stroke="midnightblue" points="234.16,-311.47 237.04,-321.66 241.14,-311.9 234.16,-311.47"/>
</g>
<!-- Node2 -->
<g id="node2" class="node">
<title>Node2</title>
<g id="a_node2"><a xlink:title=" ">
<polygon fill="none" stroke="#bfbfbf" points="0,-327.5 0,-346.5 124,-346.5 124,-327.5 0,-327.5"/>
<text text-anchor="middle" x="62" y="-334.5" font-family="Helvetica,sans-Serif" font-size="10.00">RTShaderSystemAlloc</text>
</a>
</g>
</g>
<!-- Node2&#45;&gt;Node1 -->
<g id="edge1" class="edge">
<title>Node2&#45;&gt;Node1</title>
<path fill="none" stroke="midnightblue" d="M134.49,-337C142.82,-337 151.34,-337 159.72,-337"/>
<polygon fill="midnightblue" stroke="midnightblue" points="134.43,-333.5 124.43,-337 134.43,-340.5 134.43,-333.5"/>
</g>
</g>
</svg>
