<?xml version="1.0" encoding="UTF-8" standalone="no"?>
<!DOCTYPE svg PUBLIC "-//W3C//DTD SVG 1.1//EN"
 "http://www.w3.org/Graphics/SVG/1.1/DTD/svg11.dtd">
<!-- Generated by graphviz version 2.43.0 (0)
 -->
<!-- Title: Ogre::RTShader::SubRenderState Pages: 1 -->
<svg width="737pt" height="529pt"
 viewBox="0.00 0.00 737.00 529.00" xmlns="http://www.w3.org/2000/svg" xmlns:xlink="http://www.w3.org/1999/xlink">
<g id="graph0" class="graph" transform="scale(1 1) rotate(0) translate(4 525)">
<title>Ogre::RTShader::SubRenderState</title>
<!-- Node1 -->
<g id="node1" class="node">
<title>Node1</title>
<g id="a_node1"><a xlink:title="This class is the base interface of sub part from a shader based rendering pipeline.">
<polygon fill="#bfbfbf" stroke="black" points="160,-268 160,-298 311,-298 311,-268 160,-268"/>
<text text-anchor="start" x="168" y="-286" font-family="Helvetica,sans-Serif" font-size="10.00">Ogre::RTShader::SubRender</text>
<text text-anchor="middle" x="235.5" y="-275" font-family="Helvetica,sans-Serif" font-size="10.00">State</text>
</a>
</g>
</g>
<!-- Node3 -->
<g id="node3" class="node">
<title>Node3</title>
<g id="a_node3"><a xlink:href="class_ogre_1_1_r_t_shader_1_1_f_f_p_alpha_test.html" target="_top" xlink:title="A factory that enables creation of LayeredBlending instances.">
<polygon fill="none" stroke="black" points="348,-501.5 348,-520.5 512,-520.5 512,-501.5 348,-501.5"/>
<text text-anchor="middle" x="430" y="-508.5" font-family="Helvetica,sans-Serif" font-size="10.00">Ogre::RTShader::FFPAlphaTest</text>
</a>
</g>
</g>
<!-- Node1&#45;&gt;Node3 -->
<g id="edge2" class="edge">
<title>Node1&#45;&gt;Node3</title>
<path fill="none" stroke="midnightblue" d="M242.45,-308.13C254.32,-352.49 285.26,-444.47 347,-492 351.98,-495.83 357.6,-498.91 363.5,-501.39"/>
<polygon fill="midnightblue" stroke="midnightblue" points="245.78,-307 239.9,-298.18 239,-308.74 245.78,-307"/>
</g>
<!-- Node4 -->
<g id="node4" class="node">
<title>Node4</title>
<g id="a_node4"><a xlink:href="class_ogre_1_1_r_t_shader_1_1_f_f_p_colour.html" target="_top" xlink:title="Colour sub render state implementation of the Fixed Function Pipeline.">
<polygon fill="none" stroke="black" points="356,-463.5 356,-482.5 504,-482.5 504,-463.5 356,-463.5"/>
<text text-anchor="middle" x="430" y="-470.5" font-family="Helvetica,sans-Serif" font-size="10.00">Ogre::RTShader::FFPColour</text>
</a>
</g>
</g>
<!-- Node1&#45;&gt;Node4 -->
<g id="edge3" class="edge">
<title>Node1&#45;&gt;Node4</title>
<path fill="none" stroke="midnightblue" d="M245.47,-307.83C260.42,-345.56 294.12,-416.86 347,-454 352.5,-457.86 358.67,-460.95 365.1,-463.42"/>
<polygon fill="midnightblue" stroke="midnightblue" points="248.6,-306.22 241.75,-298.13 242.06,-308.72 248.6,-306.22"/>
</g>
<!-- Node5 -->
<g id="node5" class="node">
<title>Node5</title>
<g id="a_node5"><a xlink:href="class_ogre_1_1_r_t_shader_1_1_f_f_p_fog.html" target="_top" xlink:title="Fog sub render state implementation of the Fixed Function Pipeline.">
<polygon fill="none" stroke="black" points="363,-425.5 363,-444.5 497,-444.5 497,-425.5 363,-425.5"/>
<text text-anchor="middle" x="430" y="-432.5" font-family="Helvetica,sans-Serif" font-size="10.00">Ogre::RTShader::FFPFog</text>
</a>
</g>
</g>
<!-- Node1&#45;&gt;Node5 -->
<g id="edge4" class="edge">
<title>Node1&#45;&gt;Node5</title>
<path fill="none" stroke="midnightblue" d="M249.8,-307.15C267.77,-337.44 302.73,-388.7 347,-416 353.34,-419.91 360.41,-423.02 367.67,-425.49"/>
<polygon fill="midnightblue" stroke="midnightblue" points="252.6,-305.01 244.57,-298.11 246.55,-308.52 252.6,-305.01"/>
</g>
<!-- Node6 -->
<g id="node6" class="node">
<title>Node6</title>
<g id="a_node6"><a xlink:href="class_ogre_1_1_r_t_shader_1_1_f_f_p_lighting.html" target="_top" xlink:title="Lighting sub render state implementation of the Fixed Function Pipeline.">
<polygon fill="none" stroke="black" points="352.5,-387.5 352.5,-406.5 507.5,-406.5 507.5,-387.5 352.5,-387.5"/>
<text text-anchor="middle" x="430" y="-394.5" font-family="Helvetica,sans-Serif" font-size="10.00">Ogre::RTShader::FFPLighting</text>
</a>
</g>
</g>
<!-- Node1&#45;&gt;Node6 -->
<g id="edge5" class="edge">
<title>Node1&#45;&gt;Node6</title>
<path fill="none" stroke="midnightblue" d="M256.45,-305.58C277,-327.41 311.02,-359.77 347,-378 354.69,-381.9 363.19,-385.01 371.72,-387.48"/>
<polygon fill="midnightblue" stroke="midnightblue" points="258.87,-303.03 249.51,-298.06 253.72,-307.78 258.87,-303.03"/>
</g>
<!-- Node8 -->
<g id="node8" class="node">
<title>Node8</title>
<g id="a_node8"><a xlink:href="class_ogre_1_1_r_t_shader_1_1_f_f_p_texturing.html" target="_top" xlink:title="Texturing sub render state implementation of the Fixed Function Pipeline.">
<polygon fill="none" stroke="black" points="349.5,-349.5 349.5,-368.5 510.5,-368.5 510.5,-349.5 349.5,-349.5"/>
<text text-anchor="middle" x="430" y="-356.5" font-family="Helvetica,sans-Serif" font-size="10.00">Ogre::RTShader::FFPTexturing</text>
</a>
</g>
</g>
<!-- Node1&#45;&gt;Node8 -->
<g id="edge7" class="edge">
<title>Node1&#45;&gt;Node8</title>
<path fill="none" stroke="midnightblue" d="M270.27,-303.22C291.66,-315.3 320.23,-330.17 347,-340 357.15,-343.73 368.29,-346.89 378.99,-349.5"/>
<polygon fill="midnightblue" stroke="midnightblue" points="271.99,-300.17 261.58,-298.23 268.51,-306.24 271.99,-300.17"/>
</g>
<!-- Node10 -->
<g id="node10" class="node">
<title>Node10</title>
<g id="a_node10"><a xlink:href="class_ogre_1_1_r_t_shader_1_1_f_f_p_transform.html" target="_top" xlink:title="Transform sub render state implementation of the Fixed Function Pipeline.">
<polygon fill="none" stroke="black" points="347,-311.5 347,-330.5 513,-330.5 513,-311.5 347,-311.5"/>
<text text-anchor="middle" x="430" y="-318.5" font-family="Helvetica,sans-Serif" font-size="10.00">Ogre::RTShader::FFPTransform</text>
</a>
</g>
</g>
<!-- Node1&#45;&gt;Node10 -->
<g id="edge9" class="edge">
<title>Node1&#45;&gt;Node10</title>
<path fill="none" stroke="midnightblue" d="M321.14,-299.71C341.55,-303.74 362.66,-307.9 380.73,-311.47"/>
<polygon fill="midnightblue" stroke="midnightblue" points="321.69,-296.25 311.2,-297.75 320.33,-303.12 321.69,-296.25"/>
</g>
<!-- Node11 -->
<g id="node11" class="node">
<title>Node11</title>
<g id="a_node11"><a xlink:href="class_ogre_1_1_r_t_shader_1_1_g_buffer.html" target="_top" xlink:title="Transform sub render state implementation of writing to GBuffers.">
<polygon fill="none" stroke="black" points="362,-273.5 362,-292.5 498,-292.5 498,-273.5 362,-273.5"/>
<text text-anchor="middle" x="430" y="-280.5" font-family="Helvetica,sans-Serif" font-size="10.00">Ogre::RTShader::GBuffer</text>
</a>
</g>
</g>
<!-- Node1&#45;&gt;Node11 -->
<g id="edge10" class="edge">
<title>Node1&#45;&gt;Node11</title>
<path fill="none" stroke="midnightblue" d="M321.47,-283C335,-283 348.83,-283 361.88,-283"/>
<polygon fill="midnightblue" stroke="midnightblue" points="321.2,-279.5 311.2,-283 321.2,-286.5 321.2,-279.5"/>
</g>
<!-- Node12 -->
<g id="node12" class="node">
<title>Node12</title>
<g id="a_node12"><a xlink:href="class_ogre_1_1_r_t_shader_1_1_hardware_skinning.html" target="_top" xlink:title="Implement a sub render state which performs hardware skinning.">
<polygon fill="none" stroke="black" points="357,-224 357,-254 503,-254 503,-224 357,-224"/>
<text text-anchor="start" x="365" y="-242" font-family="Helvetica,sans-Serif" font-size="10.00">Ogre::RTShader::Hardware</text>
<text text-anchor="middle" x="430" y="-231" font-family="Helvetica,sans-Serif" font-size="10.00">Skinning</text>
</a>
</g>
</g>
<!-- Node1&#45;&gt;Node12 -->
<g id="edge11" class="edge">
<title>Node1&#45;&gt;Node12</title>
<path fill="none" stroke="midnightblue" d="M312.05,-265.73C328.97,-261.86 346.78,-257.79 363.26,-254.03"/>
<polygon fill="midnightblue" stroke="midnightblue" points="311.18,-262.34 302.21,-267.98 312.74,-269.16 311.18,-262.34"/>
</g>
<!-- Node13 -->
<g id="node13" class="node">
<title>Node13</title>
<g id="a_node13"><a xlink:href="class_ogre_1_1_r_t_shader_1_1_integrated_p_s_s_m3.html" target="_top" xlink:title="Integrated PSSM shadow receiver with 3 splits sub render state implementation.">
<polygon fill="none" stroke="black" points="355.5,-175 355.5,-205 504.5,-205 504.5,-175 355.5,-175"/>
<text text-anchor="start" x="363.5" y="-193" font-family="Helvetica,sans-Serif" font-size="10.00">Ogre::RTShader::Integrated</text>
<text text-anchor="middle" x="430" y="-182" font-family="Helvetica,sans-Serif" font-size="10.00">PSSM3</text>
</a>
</g>
</g>
<!-- Node1&#45;&gt;Node13 -->
<g id="edge12" class="edge">
<title>Node1&#45;&gt;Node13</title>
<path fill="none" stroke="midnightblue" d="M265.11,-262.08C286.74,-247.04 317.62,-227.17 347,-214 354.31,-210.72 362.18,-207.76 370.06,-205.13"/>
<polygon fill="midnightblue" stroke="midnightblue" points="262.89,-259.36 256.73,-267.99 266.92,-265.08 262.89,-259.36"/>
</g>
<!-- Node14 -->
<g id="node14" class="node">
<title>Node14</title>
<g id="a_node14"><a xlink:href="class_ogre_1_1_r_t_shader_1_1_normal_map_lighting.html" target="_top" xlink:title="Normal Map Lighting extension sub render state implementation.">
<polygon fill="none" stroke="black" points="352.5,-126 352.5,-156 507.5,-156 507.5,-126 352.5,-126"/>
<text text-anchor="start" x="360.5" y="-144" font-family="Helvetica,sans-Serif" font-size="10.00">Ogre::RTShader::NormalMap</text>
<text text-anchor="middle" x="430" y="-133" font-family="Helvetica,sans-Serif" font-size="10.00">Lighting</text>
</a>
</g>
</g>
<!-- Node1&#45;&gt;Node14 -->
<g id="edge13" class="edge">
<title>Node1&#45;&gt;Node14</title>
<path fill="none" stroke="midnightblue" d="M252.46,-259.52C271.8,-232.81 306.84,-189.71 347,-165 352.56,-161.58 358.63,-158.63 364.87,-156.08"/>
<polygon fill="midnightblue" stroke="midnightblue" points="249.44,-257.72 246.51,-267.9 255.15,-261.76 249.44,-257.72"/>
</g>
<!-- Node15 -->
<g id="node15" class="node">
<title>Node15</title>
<g id="a_node15"><a xlink:href="class_ogre_1_1_r_t_shader_1_1_triplanar_texturing.html" target="_top" xlink:title="Triplanar Texturing.">
<polygon fill="none" stroke="black" points="359.5,-77 359.5,-107 500.5,-107 500.5,-77 359.5,-77"/>
<text text-anchor="start" x="367.5" y="-95" font-family="Helvetica,sans-Serif" font-size="10.00">Ogre::RTShader::Triplanar</text>
<text text-anchor="middle" x="430" y="-84" font-family="Helvetica,sans-Serif" font-size="10.00">Texturing</text>
</a>
</g>
</g>
<!-- Node1&#45;&gt;Node15 -->
<g id="edge14" class="edge">
<title>Node1&#45;&gt;Node15</title>
<path fill="none" stroke="midnightblue" d="M246.12,-258.56C261.75,-222.04 296.11,-153.54 347,-116 351.66,-112.57 356.8,-109.62 362.17,-107.1"/>
<polygon fill="midnightblue" stroke="midnightblue" points="242.82,-257.38 242.21,-267.96 249.29,-260.07 242.82,-257.38"/>
</g>
<!-- Node16 -->
<g id="node16" class="node">
<title>Node16</title>
<g id="a_node16"><a xlink:href="class_ogre_1_1_r_t_shader_1_1_w_b_o_i_t.html" target="_top" xlink:title="Transform sub render state implementation of writing to WBOIT buffers.">
<polygon fill="none" stroke="black" points="364.5,-38.5 364.5,-57.5 495.5,-57.5 495.5,-38.5 364.5,-38.5"/>
<text text-anchor="middle" x="430" y="-45.5" font-family="Helvetica,sans-Serif" font-size="10.00">Ogre::RTShader::WBOIT</text>
</a>
</g>
</g>
<!-- Node1&#45;&gt;Node16 -->
<g id="edge15" class="edge">
<title>Node1&#45;&gt;Node16</title>
<path fill="none" stroke="midnightblue" d="M241.96,-257.99C253.23,-212.55 283.52,-116.55 347,-67 352.18,-62.95 358.08,-59.74 364.27,-57.2"/>
<polygon fill="midnightblue" stroke="midnightblue" points="238.51,-257.36 239.61,-267.9 245.32,-258.98 238.51,-257.36"/>
</g>
<!-- Node17 -->
<g id="node17" class="node">
<title>Node17</title>
<g id="a_node17"><a xlink:href="class_ogre_1_1_terrain_transform.html" target="_top" xlink:title=" ">
<polygon fill="none" stroke="black" points="366,-0.5 366,-19.5 494,-19.5 494,-0.5 366,-0.5"/>
<text text-anchor="middle" x="430" y="-7.5" font-family="Helvetica,sans-Serif" font-size="10.00">Ogre::TerrainTransform</text>
</a>
</g>
</g>
<!-- Node1&#45;&gt;Node17 -->
<g id="edge16" class="edge">
<title>Node1&#45;&gt;Node17</title>
<path fill="none" stroke="midnightblue" d="M239.86,-258.03C248.13,-206.77 274.36,-89.45 347,-29 352.5,-24.42 358.91,-20.9 365.66,-18.19"/>
<polygon fill="midnightblue" stroke="midnightblue" points="236.4,-257.51 238.36,-267.92 243.32,-258.56 236.4,-257.51"/>
</g>
<!-- Node2 -->
<g id="node2" class="node">
<title>Node2</title>
<g id="a_node2"><a xlink:title=" ">
<polygon fill="none" stroke="#bfbfbf" points="0,-273.5 0,-292.5 124,-292.5 124,-273.5 0,-273.5"/>
<text text-anchor="middle" x="62" y="-280.5" font-family="Helvetica,sans-Serif" font-size="10.00">RTShaderSystemAlloc</text>
</a>
</g>
</g>
<!-- Node2&#45;&gt;Node1 -->
<g id="edge1" class="edge">
<title>Node2&#45;&gt;Node1</title>
<path fill="none" stroke="midnightblue" d="M134.49,-283C142.82,-283 151.34,-283 159.72,-283"/>
<polygon fill="midnightblue" stroke="midnightblue" points="134.43,-279.5 124.43,-283 134.43,-286.5 134.43,-279.5"/>
</g>
<!-- Node7 -->
<g id="node7" class="node">
<title>Node7</title>
<g id="a_node7"><a xlink:href="class_ogre_1_1_r_t_shader_1_1_per_pixel_lighting.html" target="_top" xlink:title="Per pixel Lighting extension sub render state implementation.">
<polygon fill="none" stroke="black" points="570,-385 570,-415 708,-415 708,-385 570,-385"/>
<text text-anchor="start" x="578" y="-403" font-family="Helvetica,sans-Serif" font-size="10.00">Ogre::RTShader::PerPixel</text>
<text text-anchor="middle" x="639" y="-392" font-family="Helvetica,sans-Serif" font-size="10.00">Lighting</text>
</a>
</g>
</g>
<!-- Node6&#45;&gt;Node7 -->
<g id="edge6" class="edge">
<title>Node6&#45;&gt;Node7</title>
<path fill="none" stroke="midnightblue" d="M517.91,-398.26C535.27,-398.51 553.26,-398.77 569.87,-399.01"/>
<polygon fill="midnightblue" stroke="midnightblue" points="517.83,-394.76 507.78,-398.11 517.73,-401.76 517.83,-394.76"/>
</g>
<!-- Node9 -->
<g id="node9" class="node">
<title>Node9</title>
<g id="a_node9"><a xlink:href="class_ogre_1_1_r_t_shader_1_1_layered_blending.html" target="_top" xlink:title="Texturing sub render state implementation of layered blending.">
<polygon fill="none" stroke="black" points="549,-346.5 549,-365.5 729,-365.5 729,-346.5 549,-346.5"/>
<text text-anchor="middle" x="639" y="-353.5" font-family="Helvetica,sans-Serif" font-size="10.00">Ogre::RTShader::LayeredBlending</text>
</a>
</g>
</g>
<!-- Node8&#45;&gt;Node9 -->
<g id="edge8" class="edge">
<title>Node8&#45;&gt;Node9</title>
<path fill="none" stroke="midnightblue" d="M521.01,-357.7C530.18,-357.56 539.49,-357.43 548.66,-357.29"/>
<polygon fill="midnightblue" stroke="midnightblue" points="520.68,-354.2 510.74,-357.84 520.79,-361.2 520.68,-354.2"/>
</g>
</g>
</svg>
