<?xml version="1.0" encoding="UTF-8" standalone="no"?>
<!DOCTYPE svg PUBLIC "-//W3C//DTD SVG 1.1//EN"
 "http://www.w3.org/Graphics/SVG/1.1/DTD/svg11.dtd">
<!-- Generated by graphviz version 2.43.0 (0)
 -->
<!-- Title: Ogre::Plugin Pages: 1 -->
<svg width="393pt" height="712pt"
 viewBox="0.00 0.00 393.00 712.00" xmlns="http://www.w3.org/2000/svg" xmlns:xlink="http://www.w3.org/1999/xlink">
<g id="graph0" class="graph" transform="scale(1 1) rotate(0) translate(4 708)">
<title>Ogre::Plugin</title>
<!-- Node1 -->
<g id="node1" class="node">
<title>Node1</title>
<g id="a_node1"><a xlink:title="Class defining a generic OGRE plugin.">
<polygon fill="#bfbfbf" stroke="black" points="107,-342.5 107,-361.5 183,-361.5 183,-342.5 107,-342.5"/>
<text text-anchor="middle" x="145" y="-349.5" font-family="Helvetica,sans-Serif" font-size="10.00">Ogre::Plugin</text>
</a>
</g>
</g>
<!-- Node3 -->
<g id="node3" class="node">
<title>Node3</title>
<g id="a_node3"><a xlink:href="class_ogre_1_1_assimp_plugin.html" target="_top" xlink:title=" ">
<polygon fill="none" stroke="black" points="246,-684.5 246,-703.5 358,-703.5 358,-684.5 246,-684.5"/>
<text text-anchor="middle" x="302" y="-691.5" font-family="Helvetica,sans-Serif" font-size="10.00">Ogre::AssimpPlugin</text>
</a>
</g>
</g>
<!-- Node1&#45;&gt;Node3 -->
<g id="edge2" class="edge">
<title>Node1&#45;&gt;Node3</title>
<path fill="none" stroke="midnightblue" d="M147.77,-371.98C153.82,-435.53 175.68,-631.45 219,-675 226.32,-682.36 235.88,-687.09 245.89,-690.1"/>
<polygon fill="midnightblue" stroke="midnightblue" points="151.23,-371.35 146.83,-361.71 144.26,-371.99 151.23,-371.35"/>
</g>
<!-- Node4 -->
<g id="node4" class="node">
<title>Node4</title>
<g id="a_node4"><a xlink:href="class_ogre_1_1_bsp_scene_manager_plugin.html" target="_top" xlink:title="Plugin instance for BSPSceneManager.">
<polygon fill="none" stroke="black" points="219,-646.5 219,-665.5 385,-665.5 385,-646.5 219,-646.5"/>
<text text-anchor="middle" x="302" y="-653.5" font-family="Helvetica,sans-Serif" font-size="10.00">Ogre::BspSceneManagerPlugin</text>
</a>
</g>
</g>
<!-- Node1&#45;&gt;Node4 -->
<g id="edge3" class="edge">
<title>Node1&#45;&gt;Node4</title>
<path fill="none" stroke="midnightblue" d="M148.41,-371.88C155.87,-430.25 180.47,-599.35 219,-637 222.87,-640.78 227.33,-643.86 232.13,-646.37"/>
<polygon fill="midnightblue" stroke="midnightblue" points="151.86,-371.25 147.14,-361.76 144.91,-372.12 151.86,-371.25"/>
</g>
<!-- Node5 -->
<g id="node5" class="node">
<title>Node5</title>
<g id="a_node5"><a xlink:href="class_ogre_1_1_cg_plugin.html" target="_top" xlink:title="Plugin instance for Cg Program Manager.">
<polygon fill="none" stroke="black" points="257.5,-608.5 257.5,-627.5 346.5,-627.5 346.5,-608.5 257.5,-608.5"/>
<text text-anchor="middle" x="302" y="-615.5" font-family="Helvetica,sans-Serif" font-size="10.00">Ogre::CgPlugin</text>
</a>
</g>
</g>
<!-- Node1&#45;&gt;Node5 -->
<g id="edge4" class="edge">
<title>Node1&#45;&gt;Node5</title>
<path fill="none" stroke="midnightblue" d="M145.6,-371.82C145.79,-418.67 153.14,-536.96 219,-599 229.32,-608.72 243.59,-613.8 257.34,-616.36"/>
<polygon fill="midnightblue" stroke="midnightblue" points="149.1,-371.55 145.67,-361.53 142.1,-371.5 149.1,-371.55"/>
</g>
<!-- Node6 -->
<g id="node6" class="node">
<title>Node6</title>
<g id="a_node6"><a xlink:href="class_ogre_1_1_d3_d11_plugin.html" target="_top" xlink:title="Plugin instance for D3D11 Manager.">
<polygon fill="none" stroke="black" points="247.5,-570.5 247.5,-589.5 356.5,-589.5 356.5,-570.5 247.5,-570.5"/>
<text text-anchor="middle" x="302" y="-577.5" font-family="Helvetica,sans-Serif" font-size="10.00">Ogre::D3D11Plugin</text>
</a>
</g>
</g>
<!-- Node1&#45;&gt;Node6 -->
<g id="edge5" class="edge">
<title>Node1&#45;&gt;Node6</title>
<path fill="none" stroke="midnightblue" d="M146.84,-371.85C149.74,-413.5 162.52,-510.33 219,-561 226.94,-568.12 237.02,-572.73 247.37,-575.67"/>
<polygon fill="midnightblue" stroke="midnightblue" points="150.33,-371.44 146.26,-361.65 143.34,-371.84 150.33,-371.44"/>
</g>
<!-- Node7 -->
<g id="node7" class="node">
<title>Node7</title>
<g id="a_node7"><a xlink:href="class_ogre_1_1_d3_d9_plugin.html" target="_top" xlink:title="Plugin instance for D3D9 Manager.">
<polygon fill="none" stroke="black" points="250.5,-532.5 250.5,-551.5 353.5,-551.5 353.5,-532.5 250.5,-532.5"/>
<text text-anchor="middle" x="302" y="-539.5" font-family="Helvetica,sans-Serif" font-size="10.00">Ogre::D3D9Plugin</text>
</a>
</g>
</g>
<!-- Node1&#45;&gt;Node7 -->
<g id="edge6" class="edge">
<title>Node1&#45;&gt;Node7</title>
<path fill="none" stroke="midnightblue" d="M148.56,-371.65C154.31,-407.47 171.67,-483.34 219,-523 227.85,-530.42 239.04,-535.06 250.3,-537.95"/>
<polygon fill="midnightblue" stroke="midnightblue" points="151.99,-370.91 147.08,-361.52 145.07,-371.92 151.99,-370.91"/>
</g>
<!-- Node8 -->
<g id="node8" class="node">
<title>Node8</title>
<g id="a_node8"><a xlink:href="class_ogre_1_1_dot_scene_plugin.html" target="_top" xlink:title=" ">
<polygon fill="none" stroke="black" points="241,-494.5 241,-513.5 363,-513.5 363,-494.5 241,-494.5"/>
<text text-anchor="middle" x="302" y="-501.5" font-family="Helvetica,sans-Serif" font-size="10.00">Ogre::DotScenePlugin</text>
</a>
</g>
</g>
<!-- Node1&#45;&gt;Node8 -->
<g id="edge7" class="edge">
<title>Node1&#45;&gt;Node8</title>
<path fill="none" stroke="midnightblue" d="M151.23,-371.77C160.06,-401.18 180.83,-456.09 219,-485 225.52,-489.94 233.12,-493.63 241,-496.38"/>
<polygon fill="midnightblue" stroke="midnightblue" points="154.51,-370.52 148.41,-361.85 147.78,-372.43 154.51,-370.52"/>
</g>
<!-- Node9 -->
<g id="node9" class="node">
<title>Node9</title>
<g id="a_node9"><a xlink:href="class_ogre_1_1_free_image_plugin.html" target="_top" xlink:title=" ">
<polygon fill="none" stroke="black" points="238,-456.5 238,-475.5 366,-475.5 366,-456.5 238,-456.5"/>
<text text-anchor="middle" x="302" y="-463.5" font-family="Helvetica,sans-Serif" font-size="10.00">Ogre::FreeImagePlugin</text>
</a>
</g>
</g>
<!-- Node1&#45;&gt;Node9 -->
<g id="edge8" class="edge">
<title>Node1&#45;&gt;Node9</title>
<path fill="none" stroke="midnightblue" d="M155.12,-370.5C166.84,-392.27 189.27,-427.87 219,-447 225.02,-450.87 231.74,-453.96 238.67,-456.42"/>
<polygon fill="midnightblue" stroke="midnightblue" points="158.21,-368.85 150.5,-361.57 151.99,-372.06 158.21,-368.85"/>
</g>
<!-- Node10 -->
<g id="node10" class="node">
<title>Node10</title>
<g id="a_node10"><a xlink:href="class_ogre_1_1_g_l3_plus_plugin.html" target="_top" xlink:title="Plugin instance for GL3Plus Manager.">
<polygon fill="none" stroke="black" points="244.5,-418.5 244.5,-437.5 359.5,-437.5 359.5,-418.5 244.5,-418.5"/>
<text text-anchor="middle" x="302" y="-425.5" font-family="Helvetica,sans-Serif" font-size="10.00">Ogre::GL3PlusPlugin</text>
</a>
</g>
</g>
<!-- Node1&#45;&gt;Node10 -->
<g id="edge9" class="edge">
<title>Node1&#45;&gt;Node10</title>
<path fill="none" stroke="midnightblue" d="M162.8,-368.63C176.73,-381.51 197.65,-398.81 219,-409 227.04,-412.84 235.91,-415.93 244.75,-418.41"/>
<polygon fill="midnightblue" stroke="midnightblue" points="165.11,-366 155.45,-361.65 160.29,-371.07 165.11,-366"/>
</g>
<!-- Node11 -->
<g id="node11" class="node">
<title>Node11</title>
<g id="a_node11"><a xlink:href="class_ogre_1_1_g_l_e_s2_plugin.html" target="_top" xlink:title="Plugin instance for GL ES 2 Manager.">
<polygon fill="none" stroke="black" points="248.5,-380.5 248.5,-399.5 355.5,-399.5 355.5,-380.5 248.5,-380.5"/>
<text text-anchor="middle" x="302" y="-387.5" font-family="Helvetica,sans-Serif" font-size="10.00">Ogre::GLES2Plugin</text>
</a>
</g>
</g>
<!-- Node1&#45;&gt;Node11 -->
<g id="edge10" class="edge">
<title>Node1&#45;&gt;Node11</title>
<path fill="none" stroke="midnightblue" d="M191.89,-364.15C200.87,-366.47 210.22,-368.84 219,-371 231.91,-374.18 246.01,-377.49 258.81,-380.45"/>
<polygon fill="midnightblue" stroke="midnightblue" points="192.53,-360.69 181.97,-361.57 190.77,-367.47 192.53,-360.69"/>
</g>
<!-- Node12 -->
<g id="node12" class="node">
<title>Node12</title>
<g id="a_node12"><a xlink:href="class_ogre_1_1_g_l_plugin.html" target="_top" xlink:title="Plugin instance for GL Manager.">
<polygon fill="none" stroke="black" points="257.5,-342.5 257.5,-361.5 346.5,-361.5 346.5,-342.5 257.5,-342.5"/>
<text text-anchor="middle" x="302" y="-349.5" font-family="Helvetica,sans-Serif" font-size="10.00">Ogre::GLPlugin</text>
</a>
</g>
</g>
<!-- Node1&#45;&gt;Node12 -->
<g id="edge11" class="edge">
<title>Node1&#45;&gt;Node12</title>
<path fill="none" stroke="midnightblue" d="M193.15,-352C213.56,-352 237.3,-352 257.3,-352"/>
<polygon fill="midnightblue" stroke="midnightblue" points="193.13,-348.5 183.13,-352 193.13,-355.5 193.13,-348.5"/>
</g>
<!-- Node13 -->
<g id="node13" class="node">
<title>Node13</title>
<g id="a_node13"><a xlink:href="class_ogre_1_1_g_l_s_lang_plugin.html" target="_top" xlink:title="Plugin instance for Cg Program Manager.">
<polygon fill="none" stroke="black" points="243,-304.5 243,-323.5 361,-323.5 361,-304.5 243,-304.5"/>
<text text-anchor="middle" x="302" y="-311.5" font-family="Helvetica,sans-Serif" font-size="10.00">Ogre::GLSLangPlugin</text>
</a>
</g>
</g>
<!-- Node1&#45;&gt;Node13 -->
<g id="edge12" class="edge">
<title>Node1&#45;&gt;Node13</title>
<path fill="none" stroke="midnightblue" d="M191.89,-339.85C200.87,-337.53 210.22,-335.16 219,-333 231.91,-329.82 246.01,-326.51 258.81,-323.55"/>
<polygon fill="midnightblue" stroke="midnightblue" points="190.77,-336.53 181.97,-342.43 192.53,-343.31 190.77,-336.53"/>
</g>
<!-- Node14 -->
<g id="node14" class="node">
<title>Node14</title>
<g id="a_node14"><a xlink:href="class_ogre_1_1_metal_plugin.html" target="_top" xlink:title="Plugin instance for Metal Manager.">
<polygon fill="none" stroke="black" points="250,-266.5 250,-285.5 354,-285.5 354,-266.5 250,-266.5"/>
<text text-anchor="middle" x="302" y="-273.5" font-family="Helvetica,sans-Serif" font-size="10.00">Ogre::MetalPlugin</text>
</a>
</g>
</g>
<!-- Node1&#45;&gt;Node14 -->
<g id="edge13" class="edge">
<title>Node1&#45;&gt;Node14</title>
<path fill="none" stroke="midnightblue" d="M162.8,-335.37C176.73,-322.49 197.65,-305.19 219,-295 228.63,-290.4 239.43,-286.89 249.96,-284.2"/>
<polygon fill="midnightblue" stroke="midnightblue" points="160.29,-332.93 155.45,-342.35 165.11,-338 160.29,-332.93"/>
</g>
<!-- Node15 -->
<g id="node15" class="node">
<title>Node15</title>
<g id="a_node15"><a xlink:href="class_ogre_1_1_octree_plugin.html" target="_top" xlink:title="Plugin instance for Octree Manager.">
<polygon fill="none" stroke="black" points="248,-228.5 248,-247.5 356,-247.5 356,-228.5 248,-228.5"/>
<text text-anchor="middle" x="302" y="-235.5" font-family="Helvetica,sans-Serif" font-size="10.00">Ogre::OctreePlugin</text>
</a>
</g>
</g>
<!-- Node1&#45;&gt;Node15 -->
<g id="edge14" class="edge">
<title>Node1&#45;&gt;Node15</title>
<path fill="none" stroke="midnightblue" d="M155.12,-333.5C166.84,-311.73 189.27,-276.13 219,-257 227.6,-251.47 237.63,-247.54 247.66,-244.75"/>
<polygon fill="midnightblue" stroke="midnightblue" points="151.99,-331.94 150.5,-342.43 158.21,-335.15 151.99,-331.94"/>
</g>
<!-- Node16 -->
<g id="node16" class="node">
<title>Node16</title>
<g id="a_node16"><a xlink:href="class_ogre_1_1_octree_zone_plugin.html" target="_top" xlink:title="Plugin instance for OctreeZone.">
<polygon fill="none" stroke="black" points="235.5,-190.5 235.5,-209.5 368.5,-209.5 368.5,-190.5 235.5,-190.5"/>
<text text-anchor="middle" x="302" y="-197.5" font-family="Helvetica,sans-Serif" font-size="10.00">Ogre::OctreeZonePlugin</text>
</a>
</g>
</g>
<!-- Node1&#45;&gt;Node16 -->
<g id="edge15" class="edge">
<title>Node1&#45;&gt;Node16</title>
<path fill="none" stroke="midnightblue" d="M151.23,-332.23C160.06,-302.82 180.83,-247.91 219,-219 224.13,-215.12 229.91,-212.01 235.98,-209.52"/>
<polygon fill="midnightblue" stroke="midnightblue" points="147.78,-331.57 148.41,-342.15 154.51,-333.48 147.78,-331.57"/>
</g>
<!-- Node17 -->
<g id="node17" class="node">
<title>Node17</title>
<g id="a_node17"><a xlink:href="class_ogre_1_1_particle_f_x_plugin.html" target="_top" xlink:title="Plugin instance for ParticleFX Manager.">
<polygon fill="none" stroke="black" points="239.5,-152.5 239.5,-171.5 364.5,-171.5 364.5,-152.5 239.5,-152.5"/>
<text text-anchor="middle" x="302" y="-159.5" font-family="Helvetica,sans-Serif" font-size="10.00">Ogre::ParticleFXPlugin</text>
</a>
</g>
</g>
<!-- Node1&#45;&gt;Node17 -->
<g id="edge16" class="edge">
<title>Node1&#45;&gt;Node17</title>
<path fill="none" stroke="midnightblue" d="M148.56,-332.35C154.31,-296.53 171.67,-220.66 219,-181 224.94,-176.03 231.93,-172.3 239.29,-169.51"/>
<polygon fill="midnightblue" stroke="midnightblue" points="145.07,-332.08 147.08,-342.48 151.99,-333.09 145.07,-332.08"/>
</g>
<!-- Node18 -->
<g id="node18" class="node">
<title>Node18</title>
<g id="a_node18"><a xlink:href="class_ogre_1_1_p_c_z_plugin.html" target="_top" xlink:title="Plugin instance for PCZ Manager.">
<polygon fill="none" stroke="black" points="254.5,-114.5 254.5,-133.5 349.5,-133.5 349.5,-114.5 254.5,-114.5"/>
<text text-anchor="middle" x="302" y="-121.5" font-family="Helvetica,sans-Serif" font-size="10.00">Ogre::PCZPlugin</text>
</a>
</g>
</g>
<!-- Node1&#45;&gt;Node18 -->
<g id="edge17" class="edge">
<title>Node1&#45;&gt;Node18</title>
<path fill="none" stroke="midnightblue" d="M146.84,-332.15C149.74,-290.5 162.52,-193.67 219,-143 228.68,-134.31 241.54,-129.37 254.2,-126.62"/>
<polygon fill="midnightblue" stroke="midnightblue" points="143.34,-332.16 146.26,-342.35 150.33,-332.56 143.34,-332.16"/>
</g>
<!-- Node19 -->
<g id="node19" class="node">
<title>Node19</title>
<g id="a_node19"><a xlink:href="class_ogre_1_1_s_t_b_i_plugin.html" target="_top" xlink:title=" ">
<polygon fill="none" stroke="black" points="253,-76.5 253,-95.5 351,-95.5 351,-76.5 253,-76.5"/>
<text text-anchor="middle" x="302" y="-83.5" font-family="Helvetica,sans-Serif" font-size="10.00">Ogre::STBIPlugin</text>
</a>
</g>
</g>
<!-- Node1&#45;&gt;Node19 -->
<g id="edge18" class="edge">
<title>Node1&#45;&gt;Node19</title>
<path fill="none" stroke="midnightblue" d="M145.6,-332.18C145.79,-285.33 153.14,-167.04 219,-105 228.15,-96.38 240.4,-91.41 252.65,-88.61"/>
<polygon fill="midnightblue" stroke="midnightblue" points="142.1,-332.5 145.67,-342.47 149.1,-332.45 142.1,-332.5"/>
</g>
<!-- Node20 -->
<g id="node20" class="node">
<title>Node20</title>
<g id="a_node20"><a xlink:href="class_ogre_1_1_tiny_plugin.html" target="_top" xlink:title="Plugin instance for Tiny Manager.">
<polygon fill="none" stroke="black" points="254,-38.5 254,-57.5 350,-57.5 350,-38.5 254,-38.5"/>
<text text-anchor="middle" x="302" y="-45.5" font-family="Helvetica,sans-Serif" font-size="10.00">Ogre::TinyPlugin</text>
</a>
</g>
</g>
<!-- Node1&#45;&gt;Node20 -->
<g id="edge19" class="edge">
<title>Node1&#45;&gt;Node20</title>
<path fill="none" stroke="midnightblue" d="M148.41,-332.12C155.87,-273.75 180.47,-104.65 219,-67 228.3,-57.91 241.05,-52.84 253.72,-50.1"/>
<polygon fill="midnightblue" stroke="midnightblue" points="144.91,-331.88 147.14,-342.24 151.86,-332.75 144.91,-331.88"/>
</g>
<!-- Node21 -->
<g id="node21" class="node">
<title>Node21</title>
<g id="a_node21"><a xlink:href="class_ogre_1_1_vulkan_plugin.html" target="_top" xlink:title="Plugin instance for Vulkan Manager.">
<polygon fill="none" stroke="black" points="247,-0.5 247,-19.5 357,-19.5 357,-0.5 247,-0.5"/>
<text text-anchor="middle" x="302" y="-7.5" font-family="Helvetica,sans-Serif" font-size="10.00">Ogre::VulkanPlugin</text>
</a>
</g>
</g>
<!-- Node1&#45;&gt;Node21 -->
<g id="edge20" class="edge">
<title>Node1&#45;&gt;Node21</title>
<path fill="none" stroke="midnightblue" d="M147.77,-332.02C153.82,-268.47 175.68,-72.55 219,-29 226.52,-21.44 236.42,-16.64 246.73,-13.65"/>
<polygon fill="midnightblue" stroke="midnightblue" points="144.26,-332.01 146.83,-342.29 151.23,-332.65 144.26,-332.01"/>
</g>
<!-- Node2 -->
<g id="node2" class="node">
<title>Node2</title>
<g id="a_node2"><a xlink:title=" ">
<polygon fill="none" stroke="#bfbfbf" points="0,-342.5 0,-361.5 71,-361.5 71,-342.5 0,-342.5"/>
<text text-anchor="middle" x="35.5" y="-349.5" font-family="Helvetica,sans-Serif" font-size="10.00">PluginAlloc</text>
</a>
</g>
</g>
<!-- Node2&#45;&gt;Node1 -->
<g id="edge1" class="edge">
<title>Node2&#45;&gt;Node1</title>
<path fill="none" stroke="midnightblue" d="M81.28,-352C89.79,-352 98.62,-352 106.86,-352"/>
<polygon fill="midnightblue" stroke="midnightblue" points="81.11,-348.5 71.11,-352 81.11,-355.5 81.11,-348.5"/>
</g>
</g>
</svg>
