<?xml version="1.0" encoding="UTF-8" standalone="no"?>
<!DOCTYPE svg PUBLIC "-//W3C//DTD SVG 1.1//EN"
 "http://www.w3.org/Graphics/SVG/1.1/DTD/svg11.dtd">
<!-- Generated by graphviz version 2.43.0 (0)
 -->
<!-- Title: Graphical Class Hierarchy Pages: 1 -->
<svg width="498pt" height="104pt"
 viewBox="0.00 0.00 498.00 104.00" xmlns="http://www.w3.org/2000/svg" xmlns:xlink="http://www.w3.org/1999/xlink">
<g id="graph0" class="graph" transform="scale(1 1) rotate(0) translate(4 100)">
<title>Graphical Class Hierarchy</title>
<!-- Node1240 -->
<g id="node1" class="node">
<title>Node1240</title>
<g id="a_node1"><a xlink:title=" ">
<polygon fill="none" stroke="#bfbfbf" points="0,-38.5 0,-57.5 71,-57.5 71,-38.5 0,-38.5"/>
<text text-anchor="middle" x="35.5" y="-45.5" font-family="Helvetica,sans-Serif" font-size="10.00">CodecAlloc</text>
</a>
</g>
</g>
<!-- Node0 -->
<g id="node2" class="node">
<title>Node0</title>
<g id="a_node2"><a xlink:href="class_ogre_1_1_codec.html" target="_top" xlink:title="Abstract class that defines a &#39;codec&#39;.">
<polygon fill="none" stroke="black" points="107,-38.5 107,-57.5 183,-57.5 183,-38.5 107,-38.5"/>
<text text-anchor="middle" x="145" y="-45.5" font-family="Helvetica,sans-Serif" font-size="10.00">Ogre::Codec</text>
</a>
</g>
</g>
<!-- Node1240&#45;&gt;Node0 -->
<g id="edge1" class="edge">
<title>Node1240&#45;&gt;Node0</title>
<path fill="none" stroke="midnightblue" d="M81.28,-48C89.79,-48 98.62,-48 106.86,-48"/>
<polygon fill="midnightblue" stroke="midnightblue" points="81.11,-44.5 71.11,-48 81.11,-51.5 81.11,-44.5"/>
</g>
<!-- Node1 -->
<g id="node3" class="node">
<title>Node1</title>
<g id="a_node3"><a xlink:href="class_ogre_1_1_image_codec.html" target="_top" xlink:title="Codec specialized in images.">
<polygon fill="none" stroke="black" points="219,-38.5 219,-57.5 326,-57.5 326,-38.5 219,-38.5"/>
<text text-anchor="middle" x="272.5" y="-45.5" font-family="Helvetica,sans-Serif" font-size="10.00">Ogre::ImageCodec</text>
</a>
</g>
</g>
<!-- Node0&#45;&gt;Node1 -->
<g id="edge2" class="edge">
<title>Node0&#45;&gt;Node1</title>
<path fill="none" stroke="midnightblue" d="M193.52,-48C201.77,-48 210.39,-48 218.77,-48"/>
<polygon fill="midnightblue" stroke="midnightblue" points="193.31,-44.5 183.31,-48 193.31,-51.5 193.31,-44.5"/>
</g>
<!-- Node2 -->
<g id="node4" class="node">
<title>Node2</title>
<g id="a_node4"><a xlink:href="class_ogre_1_1_e_x_r_codec.html" target="_top" xlink:title=" ">
<polygon fill="none" stroke="black" points="378.5,-76.5 378.5,-95.5 473.5,-95.5 473.5,-76.5 378.5,-76.5"/>
<text text-anchor="middle" x="426" y="-83.5" font-family="Helvetica,sans-Serif" font-size="10.00">Ogre::EXRCodec</text>
</a>
</g>
</g>
<!-- Node1&#45;&gt;Node2 -->
<g id="edge3" class="edge">
<title>Node1&#45;&gt;Node2</title>
<path fill="none" stroke="midnightblue" d="M321.5,-60.04C342.67,-65.35 367.19,-71.5 387.05,-76.48"/>
<polygon fill="midnightblue" stroke="midnightblue" points="322.28,-56.63 311.73,-57.59 320.58,-63.42 322.28,-56.63"/>
</g>
<!-- Node3 -->
<g id="node5" class="node">
<title>Node3</title>
<g id="a_node5"><a xlink:href="class_ogre_1_1_free_image_codec.html" target="_top" xlink:title=" ">
<polygon fill="none" stroke="black" points="362,-38.5 362,-57.5 490,-57.5 490,-38.5 362,-38.5"/>
<text text-anchor="middle" x="426" y="-45.5" font-family="Helvetica,sans-Serif" font-size="10.00">Ogre::FreeImageCodec</text>
</a>
</g>
</g>
<!-- Node1&#45;&gt;Node3 -->
<g id="edge4" class="edge">
<title>Node1&#45;&gt;Node3</title>
<path fill="none" stroke="midnightblue" d="M336.24,-48C344.69,-48 353.37,-48 361.84,-48"/>
<polygon fill="midnightblue" stroke="midnightblue" points="336.06,-44.5 326.06,-48 336.06,-51.5 336.06,-44.5"/>
</g>
<!-- Node4 -->
<g id="node6" class="node">
<title>Node4</title>
<g id="a_node6"><a xlink:href="class_ogre_1_1_s_t_b_i_image_codec.html" target="_top" xlink:title=" ">
<polygon fill="none" stroke="black" points="362,-0.5 362,-19.5 490,-19.5 490,-0.5 362,-0.5"/>
<text text-anchor="middle" x="426" y="-7.5" font-family="Helvetica,sans-Serif" font-size="10.00">Ogre::STBIImageCodec</text>
</a>
</g>
</g>
<!-- Node1&#45;&gt;Node4 -->
<g id="edge5" class="edge">
<title>Node1&#45;&gt;Node4</title>
<path fill="none" stroke="midnightblue" d="M321.5,-35.96C342.67,-30.65 367.19,-24.5 387.05,-19.52"/>
<polygon fill="midnightblue" stroke="midnightblue" points="320.58,-32.58 311.73,-38.41 322.28,-39.37 320.58,-32.58"/>
</g>
</g>
</svg>
