<?xml version="1.0" encoding="UTF-8" standalone="no"?>
<!DOCTYPE svg PUBLIC "-//W3C//DTD SVG 1.1//EN"
 "http://www.w3.org/Graphics/SVG/1.1/DTD/svg11.dtd">
<!-- Generated by graphviz version 2.43.0 (0)
 -->
<!-- Title: Graphical Class Hierarchy Pages: 1 -->
<svg width="492pt" height="147pt"
 viewBox="0.00 0.00 492.00 147.00" xmlns="http://www.w3.org/2000/svg" xmlns:xlink="http://www.w3.org/1999/xlink">
<g id="graph0" class="graph" transform="scale(1 1) rotate(0) translate(4 143)">
<title>Graphical Class Hierarchy</title>
<!-- Node1092 -->
<g id="node1" class="node">
<title>Node1092</title>
<g id="a_node1"><a xlink:title=" ">
<polygon fill="none" stroke="#bfbfbf" points="0,-81.5 0,-100.5 66,-100.5 66,-81.5 0,-81.5"/>
<text text-anchor="middle" x="33" y="-88.5" font-family="Helvetica,sans-Serif" font-size="10.00">NodeAlloc</text>
</a>
</g>
</g>
<!-- Node0 -->
<g id="node2" class="node">
<title>Node0</title>
<g id="a_node2"><a xlink:href="class_ogre_1_1_bsp_node.html" target="_top" xlink:title="Encapsulates a node in a BSP tree.">
<polygon fill="none" stroke="black" points="102,-119.5 102,-138.5 191,-138.5 191,-119.5 102,-119.5"/>
<text text-anchor="middle" x="146.5" y="-126.5" font-family="Helvetica,sans-Serif" font-size="10.00">Ogre::BspNode</text>
</a>
</g>
</g>
<!-- Node1092&#45;&gt;Node0 -->
<g id="edge1" class="edge">
<title>Node1092&#45;&gt;Node0</title>
<path fill="none" stroke="midnightblue" d="M71.63,-103.83C86.59,-108.92 103.51,-114.69 117.37,-119.41"/>
<polygon fill="midnightblue" stroke="midnightblue" points="72.73,-100.5 62.14,-100.59 70.47,-107.13 72.73,-100.5"/>
</g>
<!-- Node1094 -->
<g id="node3" class="node">
<title>Node1094</title>
<g id="a_node3"><a xlink:href="class_ogre_1_1_node.html" target="_top" xlink:title="Class representing a general&#45;purpose node an articulated scene graph.">
<polygon fill="none" stroke="black" points="111,-81.5 111,-100.5 182,-100.5 182,-81.5 111,-81.5"/>
<text text-anchor="middle" x="146.5" y="-88.5" font-family="Helvetica,sans-Serif" font-size="10.00">Ogre::Node</text>
</a>
</g>
</g>
<!-- Node1092&#45;&gt;Node1094 -->
<g id="edge2" class="edge">
<title>Node1092&#45;&gt;Node1094</title>
<path fill="none" stroke="midnightblue" d="M76.45,-91C87.86,-91 100.06,-91 110.99,-91"/>
<polygon fill="midnightblue" stroke="midnightblue" points="76.25,-87.5 66.25,-91 76.25,-94.5 76.25,-87.5"/>
</g>
<!-- Node1101 -->
<g id="node10" class="node">
<title>Node1101</title>
<g id="a_node10"><a xlink:href="class_ogre_1_1_octree.html" target="_top" xlink:title="Octree datastructure for managing scene nodes.">
<polygon fill="none" stroke="black" points="107.5,-43.5 107.5,-62.5 185.5,-62.5 185.5,-43.5 107.5,-43.5"/>
<text text-anchor="middle" x="146.5" y="-50.5" font-family="Helvetica,sans-Serif" font-size="10.00">Ogre::Octree</text>
</a>
</g>
</g>
<!-- Node1092&#45;&gt;Node1101 -->
<g id="edge9" class="edge">
<title>Node1092&#45;&gt;Node1101</title>
<path fill="none" stroke="midnightblue" d="M71.63,-78.17C86.59,-73.08 103.51,-67.31 117.37,-62.59"/>
<polygon fill="midnightblue" stroke="midnightblue" points="70.47,-74.87 62.14,-81.41 72.73,-81.5 70.47,-74.87"/>
</g>
<!-- Node1095 -->
<g id="node4" class="node">
<title>Node1095</title>
<g id="a_node4"><a xlink:href="class_ogre_1_1_bone.html" target="_top" xlink:title="A bone in a skeleton.">
<polygon fill="none" stroke="black" points="242,-104.5 242,-123.5 313,-123.5 313,-104.5 242,-104.5"/>
<text text-anchor="middle" x="277.5" y="-111.5" font-family="Helvetica,sans-Serif" font-size="10.00">Ogre::Bone</text>
</a>
</g>
</g>
<!-- Node1094&#45;&gt;Node1095 -->
<g id="edge3" class="edge">
<title>Node1094&#45;&gt;Node1095</title>
<path fill="none" stroke="midnightblue" d="M191.94,-98.92C208.27,-101.83 226.5,-105.08 241.83,-107.82"/>
<polygon fill="midnightblue" stroke="midnightblue" points="192.53,-95.47 182.07,-97.16 191.3,-102.36 192.53,-95.47"/>
</g>
<!-- Node1097 -->
<g id="node6" class="node">
<title>Node1097</title>
<g id="a_node6"><a xlink:href="class_ogre_1_1_scene_node.html" target="_top" xlink:title="Class representing a node in the scene graph.">
<polygon fill="none" stroke="black" points="227,-57.5 227,-76.5 328,-76.5 328,-57.5 227,-57.5"/>
<text text-anchor="middle" x="277.5" y="-64.5" font-family="Helvetica,sans-Serif" font-size="10.00">Ogre::SceneNode</text>
</a>
</g>
</g>
<!-- Node1094&#45;&gt;Node1097 -->
<g id="edge5" class="edge">
<title>Node1094&#45;&gt;Node1097</title>
<path fill="none" stroke="midnightblue" d="M192.06,-82.71C203.27,-80.62 215.36,-78.37 226.8,-76.25"/>
<polygon fill="midnightblue" stroke="midnightblue" points="191.26,-79.3 182.07,-84.57 192.54,-86.18 191.26,-79.3"/>
</g>
<!-- Node1096 -->
<g id="node5" class="node">
<title>Node1096</title>
<g id="a_node5"><a xlink:href="class_ogre_1_1_tag_point.html" target="_top" xlink:title="A tagged point on a skeleton, which can be used to attach entities to on specific other entities.">
<polygon fill="none" stroke="black" points="380.5,-114.5 380.5,-133.5 467.5,-133.5 467.5,-114.5 380.5,-114.5"/>
<text text-anchor="middle" x="424" y="-121.5" font-family="Helvetica,sans-Serif" font-size="10.00">Ogre::TagPoint</text>
</a>
</g>
</g>
<!-- Node1095&#45;&gt;Node1096 -->
<g id="edge4" class="edge">
<title>Node1095&#45;&gt;Node1096</title>
<path fill="none" stroke="midnightblue" d="M323.2,-117.09C341.43,-118.35 362.41,-119.81 380.41,-121.05"/>
<polygon fill="midnightblue" stroke="midnightblue" points="323.33,-113.59 313.11,-116.4 322.85,-120.58 323.33,-113.59"/>
</g>
<!-- Node1098 -->
<g id="node7" class="node">
<title>Node1098</title>
<g id="a_node7"><a xlink:href="class_ogre_1_1_bsp_scene_node.html" target="_top" xlink:title="Specialisation of SceneNode for the BspSceneManager.">
<polygon fill="none" stroke="black" points="364.5,-76.5 364.5,-95.5 483.5,-95.5 483.5,-76.5 364.5,-76.5"/>
<text text-anchor="middle" x="424" y="-83.5" font-family="Helvetica,sans-Serif" font-size="10.00">Ogre::BspSceneNode</text>
</a>
</g>
</g>
<!-- Node1097&#45;&gt;Node1098 -->
<g id="edge6" class="edge">
<title>Node1097&#45;&gt;Node1098</title>
<path fill="none" stroke="midnightblue" d="M338.25,-74.86C346.92,-76 355.83,-77.17 364.47,-78.3"/>
<polygon fill="midnightblue" stroke="midnightblue" points="338.6,-71.37 328.23,-73.54 337.69,-78.31 338.6,-71.37"/>
</g>
<!-- Node1099 -->
<g id="node8" class="node">
<title>Node1099</title>
<g id="a_node8"><a xlink:href="class_ogre_1_1_octree_node.html" target="_top" xlink:title="Specialized SceneNode that is customized for working within an Octree.">
<polygon fill="none" stroke="black" points="372,-38.5 372,-57.5 476,-57.5 476,-38.5 372,-38.5"/>
<text text-anchor="middle" x="424" y="-45.5" font-family="Helvetica,sans-Serif" font-size="10.00">Ogre::OctreeNode</text>
</a>
</g>
</g>
<!-- Node1097&#45;&gt;Node1099 -->
<g id="edge7" class="edge">
<title>Node1097&#45;&gt;Node1099</title>
<path fill="none" stroke="midnightblue" d="M338.28,-59.14C349.38,-57.68 360.89,-56.17 371.71,-54.74"/>
<polygon fill="midnightblue" stroke="midnightblue" points="337.69,-55.69 328.23,-60.46 338.6,-62.63 337.69,-55.69"/>
</g>
<!-- Node1100 -->
<g id="node9" class="node">
<title>Node1100</title>
<g id="a_node9"><a xlink:href="class_ogre_1_1_p_c_z_scene_node.html" target="_top" xlink:title="The PCZSceneNode is an extension used to store zone information and provide additional functionality ...">
<polygon fill="none" stroke="black" points="364,-0.5 364,-19.5 484,-19.5 484,-0.5 364,-0.5"/>
<text text-anchor="middle" x="424" y="-7.5" font-family="Helvetica,sans-Serif" font-size="10.00">Ogre::PCZSceneNode</text>
</a>
</g>
</g>
<!-- Node1097&#45;&gt;Node1100 -->
<g id="edge8" class="edge">
<title>Node1097&#45;&gt;Node1100</title>
<path fill="none" stroke="midnightblue" d="M307.37,-53.25C323.79,-45.66 344.85,-36.32 364,-29 372.75,-25.66 382.36,-22.39 391.25,-19.54"/>
<polygon fill="midnightblue" stroke="midnightblue" points="305.87,-50.08 298.29,-57.48 308.83,-56.43 305.87,-50.08"/>
</g>
</g>
</svg>
